<?xml version="1.0" encoding="UTF-8" standalone="no"?>
<svg width="32" height="32" viewBox="0 0 32 32" version="1.1" xmlns="http://www.w3.org/2000/svg">
  <path fill="#FF3D00" d="M32 16c0 8.837-7.163 16-16 16S0 24.837 0 16 7.163 0 16 0s16 7.163 16 16"></path>
  <path fill="#FFF" d="M16.226 8.8c-4.187 0-7.477 3.29-7.477 7.477 0 4.187 3.29 7.477 7.477 7.477 4.187 0 7.477-3.29 7.477-7.477 0-4.187-3.29-7.477-7.477-7.477m0 11.428c-2.18 0-3.951-1.77-3.951-3.951s1.77-3.951 3.951-3.951 3.951 1.77 3.951 3.951-1.77 3.951-3.951 3.951"></path>
</svg> 